
        <svg xmlns="http://www.w3.org/2000/svg" xmlns:xlink="http://www.w3.org/1999/xlink" version="1.1" width="3300" 
        height="2863.5913302269687" viewBox="0 0 3300 2863.5913302269687">
			
			<g transform="scale(15) translate(10, 10)">
				<defs id="SvgjsDefs3336"></defs><g id="SvgjsG3337" featureKey="symbolFeature-0" transform="matrix(0.2283963938653998,0,0,0.2283963938653998,41.5432072122692,-6.258061104785645)" fill="#ffcd38"><g xmlns="http://www.w3.org/2000/svg"><path d="M281.4,27.4c-119.6,0-217.9,92.4-227.6,209.5c-15.7,8.6-26.4,25.3-26.4,44.5v50.8H12.2c-5.6,0-10.2,4.5-10.2,10.2v30.5   c0,5.6,4.5,10.2,10.2,10.2h15.1v63.5c0,7,5.7,12.7,12.7,12.7c7,0,12.7-5.7,12.7-12.7V383h50.9v63.5c0,7,5.7,12.7,12.7,12.7   c7,0,12.7-5.7,12.7-12.7V383h15.2c5.6,0,10.2-4.5,10.2-10.2v-30.5c0-5.6-4.5-10.2-10.2-10.2H129v-48.1c0-18.7-9.5-36.3-24.5-45.9   c9-89.7,84.9-160,176.9-160c98,0,177.8,79.8,177.8,177.8c0,98-79.8,177.8-177.8,177.8c-14,0-25.4,11.4-25.4,25.4   c0,14,11.4,25.4,25.4,25.4C407.4,484.6,510,382,510,256S407.4,27.4,281.4,27.4z"></path><path d="M347.8,256h-18.6c-7.7,0-12.6-8.2-8.9-15l61.5-97c3.7-6.8-1.2-15-8.9-15l-135.4,0c-5,0-9.2,3.6-10,8.5l-22.1,135   c-1,6.2,3.8,11.8,10,11.8h28.3c6.5,0,11.4,6.1,9.9,12.4L230.9,396c-2.3,10.4,10.9,16.9,17.7,8.7l106.8-131.8   C361.2,266.4,356.6,256,347.8,256z"></path></g></g><g id="SvgjsG3338" featureKey="nameFeature-0" transform="matrix(1.7857142857142858,0,0,1.7857142857142858,-3.5714285714285716,113.28571428571428)" fill="#4a4a4a"><path d="M3.5 20 l-1.5 0 l0 -14 l6.2 0 c2.1 0 3.5 1.4 3.5 3.3 l0 1.9 c0 2.8 -2.7 3.2 -2.7 3.2 l3.1 5 l0 0.6 l-1.5 0 l-3.1 -5.5 l-4 0 l0 5.5 z M8.2 7.300000000000001 l-4.7 0 l0 5.9 l4.7 0 c1.1 0 2 -0.9 2 -2 l0 -1.9 c0 -1.1 -0.9 -2 -2 -2 z M15.1 20 l0 -14 l9.1 0 l0 0.9 l-0.4 0.4 l-7.2 0 l0 4.9 l5.7 0 l0 1.3 l-5.7 0 l0 5.2 l7.6 0 l0 1.3 l-9.1 0 z M35.7 18.7 l0 1.3 l-5.8 0 c-2.1 0 -3.5 -1.4 -3.5 -3.3 l0 -7.4 c0 -1.9 1.4 -3.3 3.5 -3.3 l5.8 0 l0 0.9 l-0.4 0.4 l-5.4 0 c-1.1 0 -2 0.9 -2 2 l0 7.4 c0 1.1 0.9 2 2 2 l5.8 0 z M46.8 6 l1.5 0 l0 14 l-1.5 0 l0 -6.5 l-6.9 0 l0 6.5 l-1.5 0 l0 -14 l1.5 0 l0 6.2 l6.9 0 l0 -6.2 z M53.3 16.4 l-1.2 3.6 l-1.5 0 l0 -0.6 l4.9 -13.4 l1.7 0 l4.9 13.4 l0 0.6 l-1.5 0 l-1.2 -3.6 l-6.1 0 z M58.9 15.1 l-2.5 -7.3 l-0.1 0 l-2.5 7.3 l5.1 0 z M65.9 20 l-1.5 0 l0 -14 l6.2 0 c2.1 0 3.5 1.4 3.5 3.3 l0 1.9 c0 2.8 -2.7 3.2 -2.7 3.2 l3.1 5 l0 0.6 l-1.5 0 l-3.1 -5.5 l-4 0 l0 5.5 z M70.6 7.300000000000001 l-4.7 0 l0 5.9 l4.7 0 c1.1 0 2 -0.9 2 -2 l0 -1.9 c0 -1.1 -0.9 -2 -2 -2 z M86.8 20 l-6.2 0 c-2.1 0 -3.5 -1.4 -3.5 -3.3 l0 -7.4 c0 -1.9 1.4 -3.3 3.5 -3.3 l5.8 0 l0 0.9 l-0.4 0.4 l-5.4 0 c-1.1 0 -2 0.9 -2 2 l0 7.4 c0 1.1 0.9 2 2 2 l4.7 0 l0 -6.3 l1.5 0 l0 7.6 z M90.4 20 l0 -14 l9.1 0 l0 0.9 l-0.4 0.4 l-7.2 0 l0 4.9 l5.7 0 l0 1.3 l-5.7 0 l0 5.2 l7.6 0 l0 1.3 l-9.1 0 z M105.5 12.9 l3.6 0 l0 -3.7 l1.3 0 l0 3.7 l3.6 0 l0 1.3 l-3.6 0 l0 3.7 l-1.3 0 l0 -3.7 l-3.6 0 l0 -1.3 z"></path></g><g id="SvgjsG3339" featureKey="sloganFeature-0" transform="matrix(0.6366892083445234,0,0,0.6366892083445234,18.726621583310955,158.04496618748323)" fill="#4a4a4a"><path d="M3.5 20 l-1.5 0 l0 -14 l6.2 0 c2.1 0 3.5 1.4 3.5 3.3 l0 1.9 c0 2.8 -2.7 3.2 -2.7 3.2 l3.1 5 l0 0.6 l-1.5 0 l-3.1 -5.5 l-4 0 l0 5.5 z M8.2 7.300000000000001 l-4.7 0 l0 5.9 l4.7 0 c1.1 0 2 -0.9 2 -2 l0 -1.9 c0 -1.1 -0.9 -2 -2 -2 z M13.36 20 l0 -14 l9.1 0 l0 0.9 l-0.4 0.4 l-7.2 0 l0 4.9 l5.7 0 l0 1.3 l-5.7 0 l0 5.2 l7.6 0 l0 1.3 l-9.1 0 z M18.759999999999998 1.5 l1.6 0 l-2 3.1 l-1.1 0 z M22.42 9.9 l0 -0.6 c0 -1.9 1.4 -3.3 3.5 -3.3 l5.5 0 l0 0.9 l-0.4 0.4 l-5.1 0 c-1.1 0 -2 0.9 -2 2 l0 0.6 c0 1.1 0.6 1.68 1.6 1.9 l3.7 0.8 c1.4 0.3 2.5 1.4 2.5 3.2 l0 0.9 c0 1.9 -1.4 3.3 -3.5 3.3 l-6 0 l0 -1.3 l6 0 c1.1 0 2 -0.9 2 -2 l0 -0.9 c0 -1.1 -0.6 -1.68 -1.6 -1.9 l-3.7 -0.8 c-1.4 -0.3 -2.5 -1.4 -2.5 -3.2 z  M32.88 20 l0 -14 l9.1 0 l0 0.9 l-0.4 0.4 l-7.2 0 l0 4.9 l5.7 0 l0 1.3 l-5.7 0 l0 5.2 l7.6 0 l0 1.3 l-9.1 0 z M43.84 16.4 l-1.2 3.6 l-1.5 0 l0 -0.6 l4.9 -13.4 l1.7 0 l4.9 13.4 l0 0.6 l-1.5 0 l-1.2 -3.6 l-6.1 0 z M49.440000000000005 15.1 l-2.5 -7.3 l-0.1 0 l-2.5 7.3 l5.1 0 z M59.6 20.2 l-3 0 c-2.1 0 -3.5 -1.4 -3.5 -3.3 l0 -10.9 l1.5 0 l0 10.9 c0 1.1 0.9 2 2 2 l3 0 c1.1 0 2 -0.9 2 -2 l0 -10.9 l1.5 0 l0 10.9 c0 1.9 -1.4 3.3 -3.5 3.3 z M68.42 20 l0 -14 l6.4 0 c2.1 0 3.5 1.4 3.5 3.3 l0 7.4 c0 1.9 -1.4 3.3 -3.5 3.3 l-6.4 0 z M69.92 7.300000000000001 l0 11.4 l4.9 0 c1.1 0 2 -0.9 2 -2 l0 -7.4 c0 -1.1 -0.9 -2 -2 -2 l-4.9 0 z M80.18 20 l0 -14 l9.1 0 l0 0.9 l-0.4 0.4 l-7.2 0 l0 4.9 l5.7 0 l0 1.3 l-5.7 0 l0 5.2 l7.6 0 l0 1.3 l-9.1 0 z M99.70000000000002 13.4 l-5 0 l0 5.3 l5 0 c1.1 0 2 -0.9 2 -2 l0 -1.3 c0 -1.1 -0.9 -2 -2 -2 z M100.80000000000001 12.5 l0 0.1 s2.4 0.4 2.4 2.8 l0 1.3 c0 1.9 -1.4 3.3 -3.5 3.3 l-6.5 0 l0 -14 l5.8 0 c2.1 0 3.5 1.4 3.5 3.3 l0 0.8 c0 2 -1.7 2.4 -1.7 2.4 z M99.00000000000001 7.300000000000001 l-4.3 0 l0 4.8 l4.3 0 c1.1 0 2 -0.9 2 -2 l0 -0.8 c0 -1.1 -0.9 -2 -2 -2 z M104.06000000000002 16.9 l0 -7.8 c0 -1.9 1.4 -3.3 3.5 -3.3 l3.5 0 c2.1 0 3.5 1.4 3.5 3.3 l0 7.8 c0 1.9 -1.4 3.3 -3.5 3.3 l-3.5 0 c-2.1 0 -3.5 -1.4 -3.5 -3.3 z M113.06000000000002 16.9 l0 -7.8 c0 -1.1 -0.9 -2 -2 -2 l-3.5 0 c-1.1 0 -2 0.9 -2 2 l0 7.8 c0 1.1 0.9 2 2 2 l3.5 0 c1.1 0 2 -0.9 2 -2 z M117.92000000000002 20 l-1.5 0 l0 -14 l6.2 0 c2.1 0 3.5 1.4 3.5 3.3 l0 1.9 c0 2.8 -2.7 3.2 -2.7 3.2 l3.1 5 l0 0.6 l-1.5 0 l-3.1 -5.5 l-4 0 l0 5.5 z M122.62000000000002 7.300000000000001 l-4.7 0 l0 5.9 l4.7 0 c1.1 0 2 -0.9 2 -2 l0 -1.9 c0 -1.1 -0.9 -2 -2 -2 z M135.98000000000002 20 l-6.8 -11.5 l-0.1 0 l0.2 2.6 l0 8.9 l-1.5 0 l0 -14 l1.6 0 l6.8 11.5 l0.1 0 l-0.2 -2.6 l0 -8.9 l1.5 0 l0 14 l-1.6 0 z M139.84 20 l0 -14 l9.1 0 l0 0.9 l-0.4 0.4 l-7.2 0 l0 4.9 l5.7 0 l0 1.3 l-5.7 0 l0 5.2 l7.6 0 l0 1.3 l-9.1 0 z M148.9 9.9 l0 -0.6 c0 -1.9 1.4 -3.3 3.5 -3.3 l5.5 0 l0 0.9 l-0.4 0.4 l-5.1 0 c-1.1 0 -2 0.9 -2 2 l0 0.6 c0 1.1 0.6 1.68 1.6 1.9 l3.7 0.8 c1.4 0.3 2.5 1.4 2.5 3.2 l0 0.9 c0 1.9 -1.4 3.3 -3.5 3.3 l-6 0 l0 -1.3 l6 0 c1.1 0 2 -0.9 2 -2 l0 -0.9 c0 -1.1 -0.6 -1.68 -1.6 -1.9 l-3.7 -0.8 c-1.4 -0.3 -2.5 -1.4 -2.5 -3.2 z  M163.92000000000002 20 l-1.5 0 l0 -14 l6.2 0 c2.1 0 3.5 1.4 3.5 3.3 l0 2.7 c0 1.9 -1.4 3.3 -3.5 3.3 l-4.7 0 l0 4.7 z M168.62 7.300000000000001 l-4.7 0 l0 6.7 l4.7 0 c1.1 0 2 -0.9 2 -2 l0 -2.7 c0 -1.1 -0.9 -2 -2 -2 z M173.78000000000003 16.4 l-1.2 3.6 l-1.5 0 l0 -0.6 l4.9 -13.4 l1.7 0 l4.9 13.4 l0 0.6 l-1.5 0 l-1.2 -3.6 l-6.1 0 z M179.38000000000002 15.1 l-2.5 -7.3 l-0.1 0 l-2.5 7.3 l5.1 0 z M184.64000000000004 20 l-1.5 0 l0 -14 l6.2 0 c2.1 0 3.5 1.4 3.5 3.3 l0 1.9 c0 2.8 -2.7 3.2 -2.7 3.2 l3.1 5 l0 0.6 l-1.5 0 l-3.1 -5.5 l-4 0 l0 5.5 z M189.34000000000003 7.300000000000001 l-4.7 0 l0 5.9 l4.7 0 c1.1 0 2 -0.9 2 -2 l0 -1.9 c0 -1.1 -0.9 -2 -2 -2 z M198.60000000000005 7.300000000000001 l0 12.7 l-1.5 0 l0 -12.7 l-4.4 0 l0 -1.3 l10.3 0 l0 0.9 l-0.4 0.4 l-4 0 z M204.46000000000006 16.4 l-1.2 3.6 l-1.5 0 l0 -0.6 l4.9 -13.4 l1.7 0 l4.9 13.4 l0 0.6 l-1.5 0 l-1.2 -3.6 l-6.1 0 z M210.06000000000006 15.1 l-2.5 -7.3 l-0.1 0 l-2.5 7.3 l5.1 0 z M223.12000000000006 20 l-6.2 0 c-2.1 0 -3.5 -1.4 -3.5 -3.3 l0 -7.4 c0 -1.9 1.4 -3.3 3.5 -3.3 l5.8 0 l0 0.9 l-0.4 0.4 l-5.4 0 c-1.1 0 -2 0.9 -2 2 l0 7.4 c0 1.1 0.9 2 2 2 l4.7 0 l0 -6.3 l1.5 0 l0 7.6 z M224.98000000000005 20 l0 -14 l9.1 0 l0 0.9 l-0.4 0.4 l-7.2 0 l0 4.9 l5.7 0 l0 1.3 l-5.7 0 l0 5.2 l7.6 0 l0 1.3 l-9.1 0 z M230.38000000000005 1.5 l1.6 0 l-2 3.1 l-1.1 0 z M234.94000000000005 20 l0 -14 l9.1 0 l0 0.9 l-0.4 0.4 l-7.2 0 l0 4.9 l5.7 0 l0 1.3 l-5.7 0 l0 5.2 l7.6 0 l0 1.3 l-9.1 0 z M244.00000000000006 9.9 l0 -0.6 c0 -1.9 1.4 -3.3 3.5 -3.3 l5.5 0 l0 0.9 l-0.4 0.4 l-5.1 0 c-1.1 0 -2 0.9 -2 2 l0 0.6 c0 1.1 0.6 1.68 1.6 1.9 l3.7 0.8 c1.4 0.3 2.5 1.4 2.5 3.2 l0 0.9 c0 1.9 -1.4 3.3 -3.5 3.3 l-6 0 l0 -1.3 l6 0 c1.1 0 2 -0.9 2 -2 l0 -0.9 c0 -1.1 -0.6 -1.68 -1.6 -1.9 l-3.7 -0.8 c-1.4 -0.3 -2.5 -1.4 -2.5 -3.2 z "></path></g>
			</g>
		</svg>
	